HIERARCHY
ROOT RootJoint
{
    OFFSET   0.000000   0.000000   0.000000
    CHANNELS 6 Xposition Yposition Zposition Xrotation Yrotation Zrotation
    JOINT pelvis_lowerback
    {
        OFFSET   0.000000   0.093605   0.000000
        CHANNELS 3 Xrotation Yrotation Zrotation
        JOINT lowerback_torso
        {
            OFFSET   0.000000   0.100000   0.000000
            CHANNELS 3 Xrotation Yrotation Zrotation
            JOINT torso_head
            {
                OFFSET   0.000000   0.282350   0.000000
                CHANNELS 3 Xrotation Yrotation Zrotation
                End Site
                {
                    OFFSET   0.000000   0.192650   0.000000
                }
            }
            JOINT rTorso_Clavicle
            {
                OFFSET  -0.001000   0.157500   0.000000
                CHANNELS 3 Xrotation Yrotation Zrotation
                JOINT rShoulder
                {
                    OFFSET  -0.117647   0.000000   0.000000
                    CHANNELS 3 Xrotation Yrotation Zrotation
                    JOINT rElbow
                    {
                        OFFSET  -0.245000   0.000000   0.000000
                        CHANNELS 3 Xrotation Yrotation Zrotation
                        JOINT rWrist
                        {
                            OFFSET  -0.240000   0.000000   0.000000
                            CHANNELS 3 Xrotation Yrotation Zrotation
                            End Site
                            {
                                OFFSET  -0.116353  -0.002500   0.000000
                            }
                        }
                    }
                }
            }
            JOINT lTorso_Clavicle
            {
                OFFSET   0.001000   0.157500   0.000000
                CHANNELS 3 Xrotation Yrotation Zrotation
                JOINT lShoulder
                {
                    OFFSET   0.117647   0.000000   0.000000
                    CHANNELS 3 Xrotation Yrotation Zrotation
                    JOINT lElbow
                    {
                        OFFSET   0.245000   0.000000   0.000000
                        CHANNELS 3 Xrotation Yrotation Zrotation
                        JOINT lWrist
                        {
                            OFFSET   0.240000   0.000000   0.000000
                            CHANNELS 3 Xrotation Yrotation Zrotation
                            End Site
                            {
                                OFFSET   0.116353  -0.002500   0.000000
                            }
                        }
                    }
                }
            }
        }
    }
    JOINT rHip
    {
        OFFSET  -0.100000  -0.051395   0.000000
        CHANNELS 3 Xrotation Yrotation Zrotation
        JOINT rKnee
        {
            OFFSET   0.000000  -0.410000   0.000000
            CHANNELS 3 Xrotation Yrotation Zrotation
            JOINT rAnkle
            {
                OFFSET   0.000000  -0.390000   0.000000
                CHANNELS 3 Xrotation Yrotation Zrotation
                JOINT rToeJoint
                {
                    OFFSET   0.000000  -0.050000   0.130000
                    CHANNELS 3 Xrotation Yrotation Zrotation
                    End Site
                    {
                        OFFSET  -0.010000   0.002000   0.060000
                    }
                }
            }
        }
    }
    JOINT lHip
    {
        OFFSET   0.100000  -0.051395   0.000000
        CHANNELS 3 Xrotation Yrotation Zrotation
        JOINT lKnee
        {
            OFFSET   0.000000  -0.410000   0.000000
            CHANNELS 3 Xrotation Yrotation Zrotation
            JOINT lAnkle
            {
                OFFSET   0.000000  -0.390000   0.000000
                CHANNELS 3 Xrotation Yrotation Zrotation
                JOINT lToeJoint
                {
                    OFFSET   0.000000  -0.050000   0.130000
                    CHANNELS 3 Xrotation Yrotation Zrotation
                    End Site
                    {
                        OFFSET   0.010000   0.002000   0.060000
                    }
                }
            }
        }
    }
}
MOTION
Frames: 11
Frame Time:   0.008333
 -2.398532   0.912690   4.082812  -5.380894  11.874100   1.171103   4.897322   0.066785  -1.810516  -8.787423  -2.824512  -2.368070  -1.868797  -2.822411   0.868290 -13.059654   8.111545 -11.636163 -41.113381  11.792624   3.022773  -0.003402  63.394494   0.005548   4.867494   7.641755 -21.157970 -12.686683 -10.203557  11.975311 -47.298856 -14.487326  -5.973699   0.004355 -59.992455   0.005985   0.205379 -10.223636  22.940553   8.108918 -14.475519  -6.808787   7.790893   0.000410  -0.000626  -6.141805 -16.224127   5.990294  -3.518264  -0.000729   0.001411   6.970711   5.609180   5.346916   8.174895   0.000550  -0.000160  -9.198407   7.722099  -2.443318  -0.032806   0.000125   0.000187
 -2.396990   0.912901   4.082666  -5.402521  11.834969   1.079147   4.867895   0.064731  -1.794986  -8.802040  -2.850521  -2.321504  -1.863459  -2.758356   0.832859 -13.081104   8.125696 -11.641399 -41.196265  11.817645   3.120345  -0.003132  63.551088   0.004860   4.810668   7.657493 -21.118853 -12.702020 -10.339505  12.049388 -47.445341 -14.529582  -5.949622   0.005638 -59.421624   0.007328   0.128433 -10.240386  22.928982   8.046058 -14.466046  -6.847302   7.904524   0.000422  -0.000569  -5.831097 -16.193018   6.169805  -3.932920  -0.000642   0.001326   6.970553   5.651839   5.343112   8.263262   0.000513  -0.000144  -9.267747   7.724945  -2.412636  -0.061719   0.000084   0.000150
 -2.395448   0.913135   4.082509  -5.415785  11.809209   0.977829   4.840247   0.059431  -1.773485  -8.820688  -2.879952  -2.266554  -1.859220  -2.697545   0.799812 -13.105226   8.165610 -11.699457 -41.280077  11.871984   3.196669  -0.002921  63.695228   0.004270   4.742387   7.636685 -21.069261 -12.721131 -10.501658  12.179521 -47.591139 -14.599991  -5.914626   0.006577 -58.872578   0.008109   0.007379 -10.139809  22.897912   7.977688 -14.447888  -6.877286   8.017802   0.000436  -0.000504  -5.499678 -16.152775   6.340452  -4.383856  -0.000632   0.001169   6.966017   5.686914   5.348018   8.334626   0.000470  -0.000126  -9.327316   7.723908  -2.378826  -0.087233   0.000053   0.000120
 -2.393900   0.913371   4.082355  -5.424944  11.793630   0.877369   4.813354   0.052657  -1.751693  -8.842037  -2.910092  -2.210683  -1.853949  -2.640797   0.769282 -13.130766   8.219816 -11.785064 -41.363082  11.945039   3.259069  -0.002761  63.835016   0.003786   4.682450   7.630235 -21.027542 -12.741751 -10.673333  12.336687 -47.732915 -14.691658  -5.875216   0.007130 -58.364575   0.008415  -0.110195 -10.038981  22.864832   7.908291 -14.427781  -6.907409   8.128496   0.000447  -0.000439  -5.166886 -16.111651   6.499425  -4.840834  -0.000672   0.000994   6.960759   5.715848   5.351833   8.395694   0.000427  -0.000108  -9.381254   7.719218  -2.345702  -0.110832   0.000030   0.000096
 -2.392347   0.913599   4.082212  -5.432093  11.784793   0.781131   4.786406   0.045949  -1.731264  -8.865282  -2.939191  -2.156538  -1.848164  -2.587827   0.740772 -13.156179   8.282237 -11.885066 -41.443645  12.028639   3.312134  -0.002627  63.970105   0.003385   4.632967   7.644460 -20.994393 -12.762292 -10.847015  12.506352 -47.868836 -14.795420  -5.834510   0.007376 -57.895619   0.008393  -0.214289  -9.962522  22.833502   7.840217 -14.407753  -6.940409   8.235369   0.000453  -0.000379  -4.840291 -16.071852   6.646785  -5.291461  -0.000738   0.000827   6.956418   5.740375   5.351508   8.450593   0.000387  -0.000092  -9.432258   7.712024  -2.314800  -0.133257   0.000011   0.000077
 -2.390795   0.913815   4.082085  -5.438265  11.780467   0.690184   4.759030   0.040052  -1.712826  -8.889893  -2.966368  -2.105096  -1.842374  -2.538372   0.714075 -13.180573   8.348784 -11.991446 -41.520789  12.117168   3.358663  -0.002503  64.099588   0.003047   4.592043   7.674946 -20.967364 -12.782037 -11.017986  12.679819 -47.998030 -14.904596  -5.794097   0.007392 -57.461902   0.008155  -0.305737  -9.908919  22.804301   7.774644 -14.388553  -6.976903   8.337904   0.000455  -0.000325  -4.523160 -16.034129   6.783110  -5.730263  -0.000814   0.000679   6.953708   5.761631   5.346313   8.501579   0.000353  -0.000077  -9.481801   7.703216  -2.286618  -0.154889  -0.000004   0.000062
 -2.389248   0.914018   4.081975  -5.443969  11.779301   0.604769   4.731123   0.035271  -1.696669  -8.915466  -2.991246  -2.056763  -1.836854  -2.492199   0.689074 -13.203534   8.416596 -12.099171 -41.594012  12.206843   3.400379  -0.002380  64.222823   0.002757   4.557508   7.716391 -20.944370 -12.800734 -11.183231  12.851708 -48.120169 -15.014686  -5.754785   0.007245 -57.059897   0.007780  -0.387109  -9.872428  22.777177   7.712148 -14.370470  -7.016754   8.435960   0.000453  -0.000279  -4.217018 -15.998738   6.909098  -6.154687  -0.000891   0.000551   6.952897   5.780323   5.336358   8.549879   0.000323  -0.000065  -9.530632   7.693369  -2.261246  -0.175935  -0.000016   0.000049
 -2.387693   0.914275   4.081864  -5.458785  11.727627   0.496314   4.716118   0.056820  -1.652007  -8.937988  -3.011263  -1.996003  -1.846091  -2.451304   0.658721 -13.234072   8.559574 -12.329065 -41.608520  12.356402   3.406283  -0.001593  64.098515   0.002054   4.495699   7.774640 -20.883212 -12.823728 -11.424377  13.154171 -48.199970 -15.121676  -5.660021   0.008062 -56.363724   0.007863  -0.487396  -9.879724  22.712895   7.616421 -14.315395  -7.056501   8.599777   0.000515  -0.000286  -3.855204 -15.919187   7.108704  -6.694610  -0.000787   0.000421   6.997792   5.830440   5.338977   8.539075   0.000249  -0.000049  -9.561264   7.709043  -2.210276  -0.190762  -0.000019   0.000040
 -2.386143   0.914549   4.081766  -5.469511  11.684912   0.380327   4.700600   0.071370  -1.601693  -8.962788  -3.033404  -1.930398  -1.855159  -2.414045   0.632379 -13.264182   8.720813 -12.599827 -41.626968  12.526122   3.396664  -0.000930  63.973602   0.001496   4.412416   7.762850 -20.787920 -12.848675 -11.676172  13.492908 -48.281370 -15.247637  -5.557880   0.008702 -55.699307   0.007791  -0.624858  -9.781655  22.624002   7.515667 -14.258073  -7.088083   8.770351   0.000572  -0.000281  -3.479481 -15.835519   7.296335  -7.264297  -0.000780   0.000259   7.043412   5.874993   5.349405   8.514842   0.000180  -0.000033  -9.585319   7.722925  -2.156391  -0.204040  -0.000020   0.000032
 -2.384596   0.914818   4.081690  -5.477641  11.652014   0.266325   4.682902   0.082317  -1.553446  -8.990962  -3.056657  -1.866133  -1.862197  -2.379508   0.608500 -13.294581   8.886820 -12.883601 -41.648615  12.705567   3.378662  -0.000409  63.861015   0.001052   4.334279   7.754678 -20.695542 -12.873359 -11.928400  13.841599 -48.362178 -15.388293  -5.455950   0.009082 -55.083264   0.007593  -0.757636  -9.683936  22.535139   7.417059 -14.202469  -7.118792   8.937132   0.000615  -0.000263  -3.106995 -15.754440   7.470184  -7.832569  -0.000830   0.000098   7.088010   5.913652   5.359095   8.486637   0.000121  -0.000019  -9.607311   7.732881  -2.104427  -0.217010  -0.000021   0.000025
 -2.383054   0.915074   4.081640  -5.484493  11.626091   0.157561   4.662428   0.091692  -1.509315  -9.022153  -3.079517  -1.805461  -1.868009  -2.347307   0.586256 -13.324076   9.052097 -13.167634 -41.671769  12.887228   3.356505  -0.000014  63.760039   0.000700   4.265903   7.763574 -20.612836 -12.896408 -12.175469  14.187893 -48.440610 -15.535914  -5.357077   0.009224 -54.513090   0.007310  -0.876904  -9.608993  22.451118   7.322997 -14.149587  -7.151401   9.097261   0.000644  -0.000240  -2.744792 -15.677372   7.630863  -8.386937  -0.000907  -0.000042   7.132128   5.947825   5.365001   8.458353   0.000073  -0.000010  -9.629566   7.739795  -2.055887  -0.230104  -0.000022   0.000020
